<svg xmlns="http://www.w3.org/2000/svg" width="1312.408" height="838.95" viewBox="0 0 1312.408 838.95">
  <g id="communicating-men" transform="translate(-0.05)">
    <path id="Path_101" data-name="Path 101" d="M195.8,170c3.5,5.8,24.4,42.6,23,72.1-6.6-2.5-33.4-14.8-33.4-14.8l-1.7-10-7.3-28.2-4.1-10.8-6.9-14.2-4.5-6.2,12,2.8Z" fill="#e7eaf3"/>
    <path id="Path_102" data-name="Path 102" d="M92.5,211.2c0-8.4,3,111.9,40.3,127C112.7,344,80,339.5,80,339.5l-10.5-9.9-3.1-7.5-1.9-26.8v-9.5l.1-15.8,1.5-22.9,1.3-8.1L72,228.5l1.9-3.7s5.3,1.6,7.3,1.6S92.5,214.9,92.5,211.2Z" fill="#e7eaf3"/>
    <path id="Path_103" data-name="Path 103" d="M182.9,329c10,0,90.2,11.3,125.3,29.4-4.8,23.5-36.4,162-36.4,162H252.1s-7.4-116.6-9-115.6c-10.6,5.5-52.8,19.3-97.9,19.9" fill="#12161c"/>
    <path id="Path_104" data-name="Path 104" d="M205.3,184.8c6.9,4.9,17.5,14.3,19.9,18.2,27.2-33.8,71.9-67.9,75.6-71.8s4.8-25.9,4.8-30.7,6.6-17.6,13-17.6v57.5s-74.9,105.1-87.2,105.1c-6.4,0-32.7-11-45.9-18.1" fill="none" stroke="#1e2022" stroke-linecap="round" stroke-linejoin="round" stroke-width="2.5"/>
    <path id="Path_105" data-name="Path 105" d="M160.5,158c20,2.9,46.3,15.9,46.3,21.1.1,6-12.9,28.9-23.1,38.3" fill="none" stroke="#1e2022" stroke-linecap="round" stroke-miterlimit="10" stroke-width="2.5"/>
    <path id="Path_106" data-name="Path 106" d="M179.5,57.2a13.155,13.155,0,0,0,1.9-7c0-9-7.6-10.2-11-13-3.7-3-2.1-12.1-12-12.1-8.9,0-13.3,9.3-18.9,12.9-6.9,4.4-20.4.9-29.2,10-4.3,4.4-5.3,15.4-8,19.4-3.7,5.4-10,7-10,15.3,0,5,3.5,12.9,8.2,16.3" fill="none" stroke="#1e2022" stroke-linecap="round" stroke-miterlimit="10" stroke-width="2.5"/>
    <path id="Path_107" data-name="Path 107" d="M143.9,143.7C197.7,171,193.4,321,182.9,329c-11.5,8.8-105.5,13.1-114.1,0-4-6.1-6.9-47.6-1.8-90.2" fill="none" stroke="#1e2022" stroke-linecap="round" stroke-miterlimit="10" stroke-width="2.5"/>
    <path id="Path_108" data-name="Path 108" d="M92.4,158.2c6.2-8.4,13.8-14.5,22.7-17.2" fill="none" stroke="#1e2022" stroke-linecap="round" stroke-miterlimit="10" stroke-width="2.5"/>
    <path id="Path_109" data-name="Path 109" d="M39.2,203.2C24.1,220.5,1.3,264.7,1.3,272.6c0,20,67.5,108.1,76.1,108.1,3.6-6.2,9.3-19.1,9.3-19.1S46,286,38.6,276.2c6.4-6,29.8-37.5,33.6-47.2a27.686,27.686,0,0,0,1.2-4.1" fill="none" stroke="#1e2022" stroke-linecap="round" stroke-miterlimit="10" stroke-width="2.5"/>
    <path id="Path_110" data-name="Path 110" d="M80.8,226.6c-7.6.5-43.9-18.9-43.9-28.4,0-7.6,39.7-48.8,56.8-39.4,2.4,1.3,4,3.8,5,6.9" fill="none" stroke="#1e2022" stroke-linecap="round" stroke-miterlimit="10" stroke-width="2.5"/>
    <path id="Path_111" data-name="Path 111" d="M143.9,143.7V131.1" fill="none" stroke="#1e2022" stroke-linecap="round" stroke-miterlimit="10" stroke-width="2.5"/>
    <path id="Path_112" data-name="Path 112" d="M115.1,108.8v35.9c0,5.1,7.2,7.6,14.4,7.7" fill="none" stroke="#1e2022" stroke-linecap="round" stroke-miterlimit="10" stroke-width="2.5"/>
    <path id="Path_113" data-name="Path 113" d="M143.9,131.1a19.931,19.931,0,0,0,3.4-.5c14.8-3.5,22.7-23.8,17.6-45.5A59.045,59.045,0,0,0,161,73.7" fill="none" stroke="#1e2022" stroke-linecap="round" stroke-miterlimit="10" stroke-width="2.5"/>
    <path id="Path_114" data-name="Path 114" d="M110,88.5a9.442,9.442,0,0,0,2.6,18.5,8.807,8.807,0,0,0,1.7-.2c.3.7.6,1.3.9,2" fill="none" stroke="#1e2022" stroke-linecap="round" stroke-miterlimit="10" stroke-width="2.5"/>
    <path id="Path_115" data-name="Path 115" d="M69.4,329v.6c9.4,17.3,17.3,32,17.3,32s-5.7,12.9-9.3,19.1c-1.4,0-4.2-2.2-8-6V678.8H86.7L182.9,329C176.8,334.1,91.8,346.1,69.4,329Z" fill="#1e2022"/>
    <path id="Path_116" data-name="Path 116" d="M69.4,329v.6c9.4,17.3,17.3,32,17.3,32s-5.7,12.9-9.3,19.1c-1.4,0-4.2-2.2-8-6V678.8H86.7L182.9,329C176.8,334.1,91.8,346.1,69.4,329Z" fill="#12161c" opacity="0.1"/>
    <path id="Path_117" data-name="Path 117" d="M71.9,678.3v20.5h36.9l-25-11.6v-9.4" fill="none" stroke="#1e2022" stroke-linecap="round" stroke-linejoin="round" stroke-width="2.5"/>
    <path id="Path_118" data-name="Path 118" d="M253.9,518.8v20.5h36.9l-24.9-11.6v-9.4" fill="none" stroke="#1e2022" stroke-linecap="round" stroke-linejoin="round" stroke-width="2.5"/>
    <path id="Path_119" data-name="Path 119" d="M539.6,0H418.3a39.7,39.7,0,0,0-27,68.8V95.4l17.2-17.2a39.27,39.27,0,0,0,9.8,1.2H539.6a39.7,39.7,0,1,0,0-79.4Z" fill="#f0b90b"/>
    <circle id="Ellipse_25" data-name="Ellipse 25" cx="10" cy="10" r="10" transform="translate(428 30.9)" fill="#fff"/>
    <circle id="Ellipse_26" data-name="Ellipse 26" cx="10" cy="10" r="10" transform="translate(468.9 30.9)" fill="#fff"/>
    <circle id="Ellipse_27" data-name="Ellipse 27" cx="10" cy="10" r="10" transform="translate(509.9 30.9)" fill="#fff"/>
    <path id="Path_120" data-name="Path 120" d="M980.9,152.3a39.669,39.669,0,0,0-39.7-39.7H819.9a39.7,39.7,0,1,0,0,79.4H941.2a38.476,38.476,0,0,0,9.7-1.2L968.1,208V181.5A39.643,39.643,0,0,0,980.9,152.3Z" fill="none" stroke="#1e2022" stroke-miterlimit="10" stroke-width="2"/>
    <circle id="Ellipse_28" data-name="Ellipse 28" cx="10" cy="10" r="10" transform="translate(911.5 143.6)" fill="none" stroke="#1e2022" stroke-miterlimit="10" stroke-width="3"/>
    <circle id="Ellipse_29" data-name="Ellipse 29" cx="10" cy="10" r="10" transform="translate(870.5 143.6)" fill="none" stroke="#1e2022" stroke-miterlimit="10" stroke-width="3"/>
    <circle id="Ellipse_30" data-name="Ellipse 30" cx="10" cy="10" r="10" transform="translate(829.6 143.6)" fill="none" stroke="#1e2022" stroke-miterlimit="10" stroke-width="3"/>
    <path id="Path_121" data-name="Path 121" d="M1108.1,225.8c0,8.4-7.7,98.4-26.7,106.2,14.4-7.7,36.4-19.3,43.7-28.5.5-5.8,2.5-29.8,3.5-33.2s5-31.5,10.1-42.2c5-10.7,6.2-15,6.2-15l3.5-6.8,3.9-6.3,3.9-5.8,1.4-2-1.8-.4-3.5-.1-4.5,1-5.8,2.8-6.9,4.2-4.9,3.5-4.7,3.9-4.9,4.8-5,5.5-7.1,8.2" fill="#e7eaf3"/>
    <path id="Path_122" data-name="Path 122" d="M1239.8,292.4c0,3.4-22,112.5-58.7,112.5,41.4,3.8,62-1.6,62-1.6l7.3-6.5,2.5-7.3s2-20.4,2-22.3c.1-2.9.5-9.6.5-9.6l.6-12.6,1.6-31.5-6.5-10.6-4.4-10.8Z" fill="#e7eaf3"/>
    <path id="Path_123" data-name="Path 123" d="M1255,202.1c-8.6-11.3-22.8-21.7-42.6-25.8" fill="none" stroke="#1e2022" stroke-linecap="round" stroke-miterlimit="10" stroke-width="2.5"/>
    <path id="Path_124" data-name="Path 124" d="M1252.3,392.8c2.5-10.7,3.4-41.6,5.5-79.2" fill="none" stroke="#1e2022" stroke-linecap="round" stroke-miterlimit="10" stroke-width="2.5"/>
    <path id="Path_125" data-name="Path 125" d="M1180.6,176.6c-71.3,29.7-55.5,207.2-50.6,219.6,8.3,21.2,111.2,6,120.4.4" fill="none" stroke="#1e2022" stroke-linecap="round" stroke-miterlimit="10" stroke-width="2.5"/>
    <path id="Path_126" data-name="Path 126" d="M1225.2,140.1c-8.2,10.1-13.9,41.1-14,44.6-1.3,2.1-7.4,2.8-13.6,2.9" fill="none" stroke="#1e2022" stroke-linecap="round" stroke-miterlimit="10" stroke-width="2.5"/>
    <path id="Path_127" data-name="Path 127" d="M1100.8,253.3c-11.6,10.1-34.4,35.8-36.3,39-5.8-2.8-66.1-34.5-70.7-36.5-4.5-2-14.1-18-17.4-18-1.9,0-3.7,3.7-3.7,6.2a13.27,13.27,0,0,0,3.3,8.9c-4.3-.6-42.1-3.5-42.1-1,0,6.5,42.3,15.2,45.6,17s72.2,65.5,96.1,65.5c9.3,0,50.1-28,50.1-31" fill="none" stroke="#1e2022" stroke-linecap="round" stroke-miterlimit="10" stroke-width="2.5"/>
    <path id="Path_128" data-name="Path 128" d="M1244.6,816.7v21h-53.2l33.9-21" fill="none" stroke="#1e2022" stroke-linecap="round" stroke-miterlimit="10" stroke-width="2.5"/>
    <line id="Line_1" data-name="Line 1" y1="29.2" transform="translate(1244.6 787.5)" fill="none" stroke="#1e2022" stroke-linecap="round" stroke-miterlimit="10" stroke-width="2.5"/>
    <line id="Line_2" data-name="Line 2" y1="29.2" transform="translate(1225.6 787.5)" fill="none" stroke="#1e2022" stroke-linecap="round" stroke-miterlimit="10" stroke-width="2.5"/>
    <path id="Path_129" data-name="Path 129" d="M1016.6,693.3v20.9h-53l33.8-20.9" fill="none" stroke="#1e2022" stroke-linecap="round" stroke-miterlimit="10" stroke-width="2.5"/>
    <line id="Line_3" data-name="Line 3" y1="29.2" transform="translate(1016.6 671.7)" fill="none" stroke="#1e2022" stroke-linecap="round" stroke-miterlimit="10" stroke-width="2.5"/>
    <line id="Line_4" data-name="Line 4" y1="24" transform="translate(997.7 669.3)" fill="none" stroke="#1e2022" stroke-linecap="round" stroke-miterlimit="10" stroke-width="2.5"/>
    <path id="Path_130" data-name="Path 130" d="M918.3,837.7V715.5h139.4V837.7" fill="none" stroke="#1e2022" stroke-linecap="round" stroke-miterlimit="10" stroke-width="2"/>
    <path id="Path_131" data-name="Path 131" d="M1247,293c1.1,6.9,27.6,48.6,30.7,52.3-6.7,5.8-43.8,87-46.7,92.3,0,3,9.1,13,12.3,16.2,5.5,0,67.9-80.2,67.9-89.3s1-68.3-15.7-93.8" fill="none" stroke="#1e2022" stroke-linecap="round" stroke-miterlimit="10" stroke-width="2.5"/>
    <path id="Path_132" data-name="Path 132" d="M1239.5,291.7c9.1,3.9,53.1-9.3,56.7-22.7,3.8-19.8-25.9-76.7-52.4-66" fill="none" stroke="#1e2022" stroke-linecap="round" stroke-miterlimit="10" stroke-width="2.5"/>
    <path id="Path_133" data-name="Path 133" d="M1243.2,453.9c-3.3-3.3-12.3-13.2-12.3-16.2,1.4-2.4,9.9-21,19.5-40.8-23.7,6.4-82.6,11.2-104.2,6.3a56.01,56.01,0,0,1-16.2-6.8c-5.7,3.7-89,62-127.6,119.1-2,4.5-5,154-5,154l30.6,2.6,27.3-127.3c4.4,0,64-22.8,106.7-50l50.6,292.9h32.9l7.2-342.3C1247.9,450.5,1244.3,453.9,1243.2,453.9Z" fill="#3498db"/>
    <path id="Path_134" data-name="Path 134" d="M1155.9,47.1c0,34,85.9,25.2,85.9,68.8,0,18.9-10.3,23.4-16.4,23.4" fill="none" stroke="#1e2022" stroke-linecap="round" stroke-miterlimit="10" stroke-width="2.5"/>
    <path id="Path_135" data-name="Path 135" d="M1151.4,57.4c0,3.8,4.8,14.4,18.6,27.5" fill="none" stroke="#1e2022" stroke-linecap="round" stroke-miterlimit="10" stroke-width="2.5"/>
    <path id="Path_136" data-name="Path 136" d="M1179.1,93.2c-1.5,5-15.4,29.5-15.4,32.5s6.9,6.9,6.9,9.1c0,2.1-2.8,13.3,11.1,22.5-.6,4.2-1.1,19.3-1.1,19.3" fill="none" stroke="#1e2022" stroke-linecap="round" stroke-miterlimit="10" stroke-width="2.5"/>
    <circle id="Ellipse_31" data-name="Ellipse 31" cx="1.9" cy="1.9" r="1.9" transform="translate(1181.8 110.5)"/>
    <circle id="Ellipse_32" data-name="Ellipse 32" cx="1.9" cy="1.9" r="1.9" transform="translate(143.3 86.6)"/>
    <path id="Path_137" data-name="Path 137" d="M1179.1,140.9a31.134,31.134,0,0,1-7.9,2.3" fill="none" stroke="#1e2022" stroke-linecap="round" stroke-miterlimit="10" stroke-width="2.5"/>
    <path id="Path_138" data-name="Path 138" d="M158,114.2a26.646,26.646,0,0,1-7.9-2.3" fill="none" stroke="#1e2022" stroke-linecap="round" stroke-miterlimit="10" stroke-width="2.5"/>
    <path id="Path_139" data-name="Path 139" d="M1158.8,192.5c-18.1-6.9-60.2,38.4-61,56,3.3,8.7,20.4,19.5,31.6,25.4" fill="none" stroke="#1e2022" stroke-linecap="round" stroke-miterlimit="10" stroke-width="2.5"/>
    <path id="Path_140" data-name="Path 140" d="M346,835.8V540.2H202.3V835.8" fill="none" stroke="#1e2022" stroke-linecap="round" stroke-miterlimit="10" stroke-width="2.5"/>
    <path id="Path_141" data-name="Path 141" d="M160.3,835.8v-137H16.5v137" fill="none" stroke="#1e2022" stroke-linecap="round" stroke-miterlimit="10" stroke-width="2.5"/>
  </g>
</svg>
